<?xml version="1.0" encoding="utf-8"?>
<!-- Generator: Adobe Illustrator 15.1.0, SVG Export Plug-In . SVG Version: 6.00 Build 0)  -->
<!DOCTYPE svg PUBLIC "-//W3C//DTD SVG 1.1//EN" "http://www.w3.org/Graphics/SVG/1.1/DTD/svg11.dtd">
<svg version="1.1" id="Layer_1" xmlns="http://www.w3.org/2000/svg" xmlns:xlink="http://www.w3.org/1999/xlink" x="0px" y="0px"
	 width="1500px" height="1500px" viewBox="0 0 1500 1500" enable-background="new 0 0 1500 1500" xml:space="preserve">
<g>
	<g>
		<g>
			<path fill="#C0232C" d="M612.895,758.98c0-0.61-0.495-1.103-1.103-1.103h-65.893v-6.372h-10.315v6.372h-65.669
				c-0.607,0-1.102,0.492-1.102,1.103v8.108c0,0.609,0.494,1.102,1.102,1.102h141.877c0.607,0,1.103-0.492,1.103-1.102V758.98z"/>
			<path fill="#C0232C" d="M612.895,585.691c0-0.604-0.495-1.102-1.103-1.102H469.915c-0.607,0-1.102,0.498-1.102,1.102v8.115
				c0,0.604,0.494,1.102,1.102,1.102h65.441v21.101l-0.822,0.094c-2.547,0.282-5.028,0.721-7.371,1.303
				c-7.539,1.881-14.512,5.284-20.727,10.125l-0.728,0.565l-10.078-12.862h5.658c0.607,0,1.103-0.497,1.103-1.102v-8.114
				c0-0.604-0.495-1.101-1.103-1.101h-22.983c-0.607,0-1.103,0.496-1.103,1.101v8.114c0,0.604,0.495,1.102,1.103,1.102h4.219
				l0.076,0.099l15.657,19.985l-0.481,0.574c-5.803,6.922-9.877,15.171-11.785,23.854c-0.866,3.939-1.307,8.006-1.307,12.081
				c0,14.715,5.656,28.62,15.928,39.147c9.098,9.332,21.224,15.226,34.145,16.601l0.827,0.085v8.298H524.69
				c-0.604,0-1.1,0.492-1.1,1.102v8.114c0,0.604,0.495,1.098,1.1,1.098h31.648c0.606,0,1.101-0.493,1.101-1.098v-8.114
				c0-0.609-0.494-1.102-1.101-1.102h-10.439v-53.575l0.053-0.067l27.144-34.943c-2.1-2.771-4.553-5.271-7.292-7.424l-25.299,32.564
				l-0.199-0.251l-25.028-31.946c-2.711,2.189-5.129,4.729-7.195,7.54l27.502,35.104v34.351l-1.047-0.138
				c-10.95-1.464-20.973-6.816-28.218-15.069c-7.297-8.311-11.317-19.063-11.317-30.276c0-3.331,0.357-6.654,1.064-9.869
				c3.693-16.815,16.879-30.375,33.591-34.545c1.479-0.366,3.043-0.666,4.645-0.891l1.055-0.152v32.185l5.133,6.551l5.184-6.673
				v-63.524h66.119c0.607,0,1.103-0.497,1.103-1.102V585.691z"/>
			<path fill="#C0232C" d="M602.977,606.018c0-0.604-0.493-1.098-1.101-1.098h-22.984c-0.607,0-1.102,0.493-1.102,1.098v8.114
				c0,0.61,0.494,1.102,1.102,1.102h6.111l-9.669,12.444l-0.729-0.551c-6.959-5.262-15.147-8.871-23.7-10.446v10.519
				c12.821,2.92,23.771,11.194,30.063,22.735l0.293,0.537l-4.061,5.171c-0.376,0.479-0.291,1.17,0.187,1.546l6.378,5.011
				c0.465,0.367,1.185,0.278,1.548-0.188l6.05-7.697c1.183-1.509,1.436-3.538,0.653-5.285c-2.203-4.947-5.112-9.548-8.648-13.671
				l-0.492-0.573l15.189-19.552h3.811c0.607,0,1.101-0.491,1.101-1.102V606.018z"/>
			<path fill="#C0232C" d="M540.854,819.244c-78.77,0-142.852-64.08-142.852-142.854c0-78.764,64.082-142.851,142.852-142.851
				c78.768,0,142.852,64.087,142.852,142.851C683.705,755.164,619.621,819.244,540.854,819.244 M648.854,568.394
				c-28.848-28.848-67.202-44.74-108.001-44.74c-40.797,0-79.153,15.893-108.004,44.74c-28.847,28.848-44.732,67.201-44.732,107.997
				c0,40.804,15.886,79.158,44.732,108.002c28.851,28.853,67.207,44.736,108.004,44.736c40.799,0,79.153-15.884,108.001-44.736
				c28.848-28.844,44.738-67.198,44.738-108.002C693.593,635.595,677.702,597.241,648.854,568.394"/>
			<path fill="#C0232C" d="M581.596,694.845c-6.473,11.388-17.473,19.601-30.204,22.57v10.8
				c16.073-3.022,30.117-12.74,38.566-26.706c0.325-0.534,0.177-1.321-0.326-1.716l-6.66-5.23
				C582.506,694.195,581.89,694.33,581.596,694.845"/>
			<path fill="#C0232C" d="M749.78,517.926h26.416c0.84,0,1.521,0.68,1.521,1.521v85.075c0,0.842-0.681,1.522-1.521,1.522H749.78
				c-0.84,0-1.521-0.681-1.521-1.522v-85.075C748.26,518.605,748.94,517.926,749.78,517.926"/>
			<path fill="#C0232C" d="M811.315,542.85h-22.891c-0.841,0-1.521-0.681-1.521-1.518v-21.885c0-0.842,0.68-1.521,1.521-1.521h78.28
				c0.839,0,1.52,0.68,1.52,1.521v21.885c0,0.837-0.681,1.518-1.52,1.518h-22.895c-0.837,0-1.518,0.681-1.518,1.523v60.149
				c0,0.842-0.682,1.522-1.521,1.522h-26.415c-0.843,0-1.521-0.681-1.521-1.522v-60.149
				C812.836,543.53,812.155,542.85,811.315,542.85"/>
			<path fill="#C0232C" d="M877.902,557.861c6.619-1.16,10.604-4.344,11.246-9.468c0.105-0.832-0.588-1.513-1.427-1.513h-8.416
				c-0.84,0-1.52-0.681-1.52-1.522v-25.911c0-0.842,0.68-1.521,1.52-1.521h26.162c0.84,0,1.521,0.68,1.521,1.521v21.514
				c0,20.004-11.226,26.416-26.806,27.486c-0.838,0.054-1.662-0.578-1.841-1.402l-1.62-7.479
				C876.545,558.748,877.075,558.004,877.902,557.861"/>
			<path fill="#C0232C" d="M909.604,591.661l13.779-16.426c0.541-0.645,1.521-0.752,2.199-0.265
				c9.272,6.65,19.734,9.422,29.619,9.422c5.288,0,7.553-1.388,7.553-3.778v-0.251c0-2.517-2.771-3.9-12.21-5.791
				c-19.765-4.025-37.136-9.689-37.136-28.323v-0.25c0-16.744,13.091-29.708,37.388-29.708c16.33,0,28.593,3.717,38.573,11.158
				c0.673,0.502,0.807,1.475,0.316,2.155l-12.572,17.429c-0.492,0.681-1.439,0.828-2.133,0.357
				c-8.045-5.423-17.413-7.813-25.191-7.813c-4.407,0-6.419,1.514-6.419,3.649v0.255c0,2.393,2.39,3.901,11.706,5.665
				c22.534,4.15,37.638,10.697,37.638,28.449v0.251c0,18.503-15.231,29.833-38.896,29.833c-17.27,0-32.895-4.698-44.034-13.869
				C909.136,593.277,909.062,592.306,909.604,591.661"/>
			<path fill="#C0232C" d="M768.107,687.796l-31.7-54.274c-0.426-0.725-0.087-1.312,0.753-1.312h29.941
				c0.837,0,1.833,0.601,2.221,1.344l13.701,26.259c0.39,0.743,1.019,0.748,1.41,0.004l13.815-26.263
				c0.394-0.743,1.392-1.344,2.228-1.344h29.565c0.841,0,1.175,0.581,0.75,1.308L799.1,687.42c-0.424,0.721-0.771,1.988-0.771,2.831
				v28.556c0,0.837-0.681,1.518-1.521,1.518h-26.415c-0.841,0-1.521-0.681-1.521-1.518v-28.18
				C768.873,689.788,768.531,688.517,768.107,687.796"/>
			<path fill="#C0232C" d="M891.858,676.521v-0.256c0-10.447-7.18-19.887-18.508-19.887c-11.202,0-18.249,9.315-18.249,19.637v0.25
				c0,10.447,7.172,19.892,18.504,19.892C884.809,696.156,891.858,686.843,891.858,676.521 M825.391,676.521v-0.256
				c0-25.551,21.023-45.944,48.215-45.944c27.188,0,47.96,20.142,47.96,45.694v0.25c0,25.557-21.022,45.95-48.215,45.95
				C846.159,722.215,825.391,702.072,825.391,676.521"/>
			<path fill="#C0232C" d="M929.489,633.728c0-0.837,0.682-1.521,1.521-1.521h26.919c0.84,0,1.519,0.685,1.519,1.521v46.693
				c0,10.953,5.667,15.611,13.597,15.611c7.931,0,13.598-4.282,13.598-14.98v-47.324c0-0.837,0.676-1.521,1.518-1.521h26.92
				c0.839,0,1.521,0.685,1.521,1.521v46.442c0,30.084-17.5,41.919-43.809,41.919c-26.31,0-43.304-12.085-43.304-41.292V633.728z"/>
			<path fill="#C0232C" d="M1080.039,665.567v-0.25c0-5.666-4.405-8.438-11.205-8.438h-11.319c-0.84,0-1.519,0.681-1.519,1.522
				v14.204c0,0.837,0.679,1.519,1.519,1.519h11.194C1075.758,674.125,1080.039,670.976,1080.039,665.567 M1028.058,632.21h41.533
				c15.609,0,25.554,3.9,31.719,10.067c5.291,5.287,8.06,11.834,8.06,20.898v0.251c0,12.287-6.111,21.001-16.016,26.255
				c-0.741,0.39-0.973,1.244-0.498,1.938l18.8,27.45c0.477,0.695,0.181,1.254-0.659,1.254h-30.57c-0.84,0-1.895-0.568-2.357-1.267
				l-14.942-22.642c-0.463-0.698-0.896-1.267-0.963-1.267h-0.127h-4.521c-0.84,0-1.519,0.681-1.519,1.518v22.14
				c0,0.837-0.683,1.518-1.521,1.518h-26.418c-0.839,0-1.521-0.681-1.521-1.518v-85.079
				C1026.537,632.891,1027.219,632.21,1028.058,632.21"/>
			<path fill="#C0232C" d="M740.675,790.55c0-26.312,20.521-45.949,46.826-45.949c18.749,0,31.609,8.825,39.155,21.593
				c0.424,0.722,0.165,1.662-0.56,2.087l-21.672,12.69c-0.724,0.422-1.625,0.157-2.043-0.568c-3.233-5.576-7.781-9.364-15.257-9.364
				c-9.946,0-16.492,8.683-16.492,19.256v0.256c0,11.455,6.8,19.511,16.492,19.511c7.74,0,12.312-3.932,15.854-9.762
				c0.436-0.722,1.355-0.981,2.087-0.569l21.646,12.226c0.731,0.412,0.991,1.344,0.56,2.059c-7.501,12.49-19.734,22.48-40.902,22.48
				c-24.419,0-45.693-18.377-45.693-45.693V790.55z"/>
			<path fill="#C0232C" d="M899.537,790.801v-0.251c0-10.448-7.177-19.892-18.507-19.892c-11.204,0-18.252,9.314-18.252,19.636
				v0.256c0,10.447,7.175,19.887,18.505,19.887C892.485,810.437,899.537,801.123,899.537,790.801 M833.067,790.801v-0.251
				c0-25.556,21.023-45.949,48.216-45.949c27.189,0,47.96,20.142,47.96,45.693v0.256c0,25.552-21.023,45.944-48.213,45.944
				C853.84,836.494,833.067,816.353,833.067,790.801"/>
			<path fill="#C0232C" d="M929.366,746.489h27.803c0.839,0,1.708,0.654,1.946,1.456l11.604,39.385
				c0.237,0.802,0.646,0.811,0.911,0.014l13.262-39.663c0.268-0.797,1.163-1.441,2.002-1.441h22.389
				c0.839,0,1.735,0.645,2.003,1.441l13.26,39.663c0.268,0.797,0.674,0.788,0.911-0.014l11.606-39.385
				c0.233-0.802,1.106-1.456,1.947-1.456h27.299c0.839,0,1.309,0.646,1.049,1.442l-27.89,85.858
				c-0.26,0.797-1.147,1.446-1.987,1.446h-22.642c-0.84,0-1.745-0.641-2.027-1.434l-14.467-40.938c-0.28-0.793-0.735-0.793-1.015,0
				l-14.469,40.938c-0.281,0.793-1.188,1.434-2.028,1.434H958.19c-0.837,0-1.729-0.649-1.988-1.446l-27.886-85.858
				C928.057,747.136,928.527,746.489,929.366,746.489"/>
		</g>
	</g>
	<g>
		<path fill="#C0232C" d="M530.538,909.617l-4.718,0.674l-9.492,35.161h-2.415l-9.717-29.263l-9.155,29.263h-2.415l-10.11-35.273
			l-4.662-0.562v-2.303h15.278v2.303l-5.167,0.618l6.909,25.949l8.594-25.894l-5.673-0.674v-2.303h15.277v2.303l-5.673,0.674
			l8.313,26.118l7.189-26.062l-5.111-0.73v-2.303h12.75V909.617z"/>
		<path fill="#C0232C" d="M534.753,931.242c0.112,6.908,3.651,10.84,9.099,10.84c3.539,0,5.786-1.572,7.808-3.932l1.348,1.067
			c-2.078,3.988-5.673,6.516-10.784,6.516c-7.583,0-12.525-5.336-12.525-13.93s5.898-14.491,12.919-14.491
			c5.841,0,10.447,4.044,10.447,10.84c0,1.236-0.168,2.359-0.393,3.09H534.753z M545.088,928.883c2.696,0,3.314-1.292,3.314-2.921
			c0-3.201-2.64-6.065-6.123-6.065c-3.145,0-6.796,2.471-7.414,8.986H545.088z"/>
		<path fill="#C0232C" d="M565.704,921.638c2.696-2.978,5.561-4.325,8.65-4.325c5.954,0,10.672,5.279,10.672,13.985
			c0,8.65-4.999,14.436-11.571,14.436c-2.64,0-5.336-0.955-7.751-3.988l-0.449,3.707l-8.425-0.562v-2.022l4.212-0.786
			c0.056-2.809,0.112-6.516,0.112-8.986V909l-4.605-0.562v-1.966l8.594-2.527l0.786,0.449l-0.225,7.976V921.638z M565.872,939.386
			c2.303,2.191,4.606,3.146,6.684,3.146c3.988,0,7.414-3.538,7.414-10.784c0-7.189-2.921-11.233-7.133-11.233
			c-1.741,0-3.932,0.73-6.965,3.258V939.386z"/>
		<path fill="#C0232C" d="M601.99,929.332c5.617,2.078,7.695,4.774,7.695,8.312c0,4.213-3.651,8.089-10.896,8.089
			c-3.145,0-5.617-0.73-8.369-2.135l-0.225-6.179h3.089l1.067,4.831c1.348,0.617,2.808,0.898,4.549,0.898
			c4.269,0,6.347-1.741,6.347-4.325c0-2.358-1.741-3.65-5.28-4.942l-2.584-0.898c-4.1-1.517-6.796-3.876-6.796-7.471
			c0-4.325,3.819-8.2,9.773-8.2c3.033,0,5.448,0.843,7.863,2.303L608,925.345h-2.92l-0.899-4.494
			c-1.235-0.617-2.527-0.954-3.875-0.954c-3.426,0-5.224,1.572-5.224,4.1c0,2.247,1.348,3.314,5.167,4.719L601.99,929.332z"/>
		<path fill="#C0232C" d="M626.93,942.868v2.022h-13.031v-2.022l4.156-0.786c0.056-2.809,0.112-6.459,0.112-8.986v-2.809
			c0-3.089-0.056-4.83-0.168-7.077l-4.437-0.506v-1.966l8.706-3.426l0.842,0.562l-0.168,7.639v7.583
			c0,2.471,0.056,6.178,0.112,8.986L626.93,942.868z M616.764,907.708c0-2.19,1.629-3.595,3.763-3.595
			c2.078,0,3.763,1.404,3.763,3.595c0,2.078-1.685,3.595-3.763,3.595C618.393,911.303,616.764,909.786,616.764,907.708z"/>
		<path fill="#C0232C" d="M646.814,942.531c-1.46,1.854-3.763,2.921-6.628,2.921c-3.932,0-6.403-2.021-6.403-6.403
			c0-1.404,0.056-2.583,0.056-4.773V921.3h-4.662v-2.471l4.999-0.618l1.46-7.639h3.37l-0.281,7.751h7.526v2.977h-7.639v17.132
			c0,2.864,1.179,4.1,3.089,4.1c1.236,0,2.359-0.505,3.763-1.517L646.814,942.531z"/>
		<path fill="#C0232C" d="M654.622,931.242c0.112,6.908,3.651,10.84,9.099,10.84c3.539,0,5.786-1.572,7.808-3.932l1.348,1.067
			c-2.078,3.988-5.673,6.516-10.784,6.516c-7.583,0-12.525-5.336-12.525-13.93s5.898-14.491,12.919-14.491
			c5.841,0,10.447,4.044,10.447,10.84c0,1.236-0.168,2.359-0.393,3.09H654.622z M664.957,928.883c2.696,0,3.314-1.292,3.314-2.921
			c0-3.201-2.64-6.065-6.123-6.065c-3.145,0-6.796,2.471-7.414,8.986H664.957z"/>
		<path fill="#C0232C" d="M721.913,934.893l-0.225,8.145c-3.482,1.91-7.358,2.696-11.346,2.696
			c-11.346,0-19.041-8.089-19.041-19.659c0-11.346,8.088-19.603,18.985-19.603c3.089,0,7.077,0.506,10.84,2.696l0.225,8.145h-3.482
			l-1.123-6.628c-1.91-1.011-3.819-1.404-5.729-1.404c-7.526,0-13.592,5.842-13.592,16.794c0,11.009,5.504,16.851,13.199,16.851
			c2.134,0,4.494-0.449,6.684-1.517l1.124-6.516H721.913z"/>
		<path fill="#C0232C" d="M752.415,931.579c0,9.323-6.347,14.154-12.918,14.154c-6.516,0-12.863-4.831-12.863-14.154
			c0-9.268,6.403-14.267,12.863-14.267C746.012,917.312,752.415,922.312,752.415,931.579z M731.97,931.635
			c0,7.526,2.696,11.571,7.527,11.571c4.886,0,7.583-4.045,7.583-11.571c0-7.582-2.696-11.738-7.583-11.738
			C734.666,919.896,731.97,924.053,731.97,931.635z"/>
		<path fill="#C0232C" d="M803.923,942.868v2.022h-13.031v-2.022l4.156-0.786c0.057-2.752,0.112-6.403,0.112-8.986v-5.056
			c0-5.224-1.46-6.684-4.718-6.684c-2.359,0-4.662,0.955-7.526,3.538c0.056,0.843,0.112,1.798,0.112,2.809v5.393
			c0,2.583,0.056,6.178,0.112,8.986l3.932,0.786v2.022h-13.031v-2.022l4.156-0.786c0.057-2.752,0.113-6.403,0.113-8.986v-4.943
			c0-5.111-1.292-6.796-4.606-6.796c-2.583,0-4.718,1.011-7.47,3.37v8.369c0,2.471,0.056,6.178,0.112,8.986l3.875,0.786v2.022
			h-13.03v-2.022l4.156-0.786c0.056-2.809,0.112-6.459,0.112-8.986v-2.865c0-3.089-0.057-4.773-0.169-7.021l-4.437-0.506v-1.966
			l7.863-3.426l0.842,0.562l0.45,4.493c2.695-2.977,6.402-5.055,9.829-5.055c3.538,0,5.729,1.572,6.628,5.279
			c2.92-3.538,6.627-5.279,10.223-5.279c4.549,0,7.189,2.864,7.189,9.829v5.954c0,2.583,0.056,6.178,0.112,8.986L803.923,942.868z"
			/>
		<path fill="#C0232C" d="M820.552,942.868v2.022h-13.031v-2.022l4.156-0.786c0.057-2.809,0.112-6.459,0.112-8.986v-2.809
			c0-3.089-0.056-4.83-0.168-7.077l-4.438-0.506v-1.966l8.706-3.426l0.843,0.562l-0.169,7.639v7.583
			c0,2.471,0.057,6.178,0.112,8.986L820.552,942.868z M810.385,907.708c0-2.19,1.629-3.595,3.764-3.595
			c2.078,0,3.763,1.404,3.763,3.595c0,2.078-1.685,3.595-3.763,3.595C812.014,911.303,810.385,909.786,810.385,907.708z"/>
		<path fill="#C0232C" d="M854.646,942.868v2.022h-13.031v-2.022l4.157-0.786c0.056-2.752,0.112-6.403,0.112-8.986v-4.943
			c0-5.167-1.349-6.796-4.662-6.796c-2.584,0-4.774,1.011-7.639,3.37v8.369c0,2.471,0.056,6.178,0.112,8.986l3.875,0.786v2.022
			h-13.03v-2.022l4.156-0.786c0.056-2.809,0.112-6.459,0.112-8.986v-2.865c0-3.089-0.057-4.773-0.169-7.021l-4.437-0.506v-1.966
			l7.863-3.426l0.842,0.562l0.45,4.55c2.752-3.033,6.571-5.111,10.054-5.111c4.83,0,7.189,3.033,7.189,10.391v5.393
			c0,2.583,0.056,6.178,0.112,8.986L854.646,942.868z"/>
		<path fill="#C0232C" d="M884.135,921.581h-5.448c0.786,1.348,1.236,2.977,1.236,4.942c0,5.898-4.325,9.212-10.167,9.212
			c-1.46,0-2.864-0.169-4.1-0.562c-0.73,0.955-1.067,1.966-1.067,3.201c0,2.078,1.067,2.978,4.493,2.978h5.729
			c6.178,0,9.043,2.695,9.043,7.245c0,4.887-4.662,9.717-13.874,9.717c-8.144,0-11.795-2.809-11.795-6.796
			c0-2.472,1.404-4.381,5.617-6.459c-2.416-1.012-3.427-2.978-3.427-4.887c0-2.078,1.011-3.876,3.539-5.785
			c-2.641-1.461-4.27-4.045-4.27-7.864c0-5.897,4.325-9.211,10.167-9.211c2.977,0,5.504,0.786,7.302,2.303l6.179-2.135l0.842,0.562
			V921.581z M868.015,945.789c-1.123,0-2.134-0.112-2.977-0.337c-1.629,1.798-2.247,3.258-2.247,5.168
			c0,3.65,2.978,5.111,7.414,5.111c6.123,0,9.437-2.528,9.437-5.674c0-2.471-1.572-4.269-5.617-4.269H868.015z M875.373,926.355
			c0-3.988-2.022-6.74-5.505-6.74c-3.538,0-5.673,2.864-5.673,6.965s1.966,6.908,5.448,6.908
			C873.238,933.488,875.373,930.512,875.373,926.355z"/>
		<path fill="#C0232C" d="M914.806,923.716c7.357,2.864,10.222,6.01,10.222,11.233c0,6.684-5.504,10.784-13.312,10.784
			c-4.212,0-8.369-1.292-10.952-2.978l0.337-7.863h3.482l1.123,6.628c1.741,0.955,3.426,1.404,5.842,1.404
			c5.279,0,8.706-2.527,8.706-6.908c0-3.482-2.135-4.999-6.909-6.853l-2.19-0.899c-5.785-2.303-9.661-5.504-9.661-11.177
			c0-6.572,5.448-10.616,12.638-10.616c3.764,0,6.797,1.124,9.212,2.921l-0.337,7.358h-3.427l-1.179-6.348
			c-1.461-0.786-2.921-1.123-4.606-1.123c-4.269,0-7.582,2.247-7.582,6.571c0,3.539,2.303,5.448,6.347,6.965L914.806,923.716z"/>
		<path fill="#C0232C" d="M955.584,931.579c0,9.323-6.347,14.154-12.919,14.154c-6.516,0-12.862-4.831-12.862-14.154
			c0-9.268,6.403-14.267,12.862-14.267C949.181,917.312,955.584,922.312,955.584,931.579z M935.139,931.635
			c0,7.526,2.696,11.571,7.526,11.571c4.887,0,7.583-4.045,7.583-11.571c0-7.582-2.696-11.738-7.583-11.738
			C937.835,919.896,935.139,924.053,935.139,931.635z"/>
		<path fill="#C0232C" d="M986.423,931.579c0,9.323-6.347,14.154-12.919,14.154c-6.516,0-12.862-4.831-12.862-14.154
			c0-9.268,6.403-14.267,12.862-14.267C980.02,917.312,986.423,922.312,986.423,931.579z M965.978,931.635
			c0,7.526,2.696,11.571,7.526,11.571c4.887,0,7.583-4.045,7.583-11.571c0-7.582-2.696-11.738-7.583-11.738
			C968.674,919.896,965.978,924.053,965.978,931.635z"/>
		<path fill="#C0232C" d="M1021.305,942.868v2.022h-13.031v-2.022l4.157-0.786c0.056-2.752,0.112-6.403,0.112-8.986v-4.943
			c0-5.167-1.349-6.796-4.662-6.796c-2.584,0-4.774,1.011-7.639,3.37v8.369c0,2.471,0.056,6.178,0.112,8.986l3.875,0.786v2.022
			h-13.03v-2.022l4.156-0.786c0.056-2.809,0.112-6.459,0.112-8.986v-2.865c0-3.089-0.057-4.773-0.169-7.021l-4.437-0.506v-1.966
			l7.863-3.426l0.842,0.562l0.45,4.55c2.752-3.033,6.571-5.111,10.054-5.111c4.83,0,7.189,3.033,7.189,10.391v5.393
			c0,2.583,0.056,6.178,0.112,8.986L1021.305,942.868z"/>
	</g>
</g>
</svg>
